<svg xmlns="http://www.w3.org/2000/svg" xmlns:xlink="http://www.w3.org/1999/xlink" width="1051" height="611"><defs><linearGradient id="a" x1="869" y1="5967.5" x2="3305" y2="5967.5" gradientUnits="userSpaceOnUse"><stop offset="0" stop-color="#a044ff"/><stop offset="1" stop-color="#6a3093"/></linearGradient><linearGradient id="b" x1="1025" x2="3149.56" xlink:href="#a"/></defs><path data-name="Фигура 1 копия 2" d="M869 6179.75V5883.3s157.24-221.3 595.08-221.3c436.85 0 690.08 254.7 1020.46 254.7 286.65 0 459.79-166.18 650.12-215.73s169.69 36.19 169.69 36.19L3273.4 6273z" transform="translate(-869 -5662)" fill="url(#a)" fill-rule="evenodd" opacity=".28"/><path data-name="Фигура 1 копия 2" d="M1025 6152.74v-258.73s137.14-193.14 519-193.14c381 0 601.85 222.29 890 222.29 250 0 401-145.03 567-188.28s148 31.58 148 31.58l-27 467.67z" transform="translate(-869 -5662)" fill="url(#b)" fill-rule="evenodd" opacity=".28"/></svg>