<svg id="workflow-path-bg" xmlns="http://www.w3.org/2000/svg" width="164.25" height="455"><defs><style>.cls-2{fill-rule:evenodd;fill:#d695b3}</style></defs><path id="Фигура_5" data-name="Фигура 5" d="M107.5.5s54 46.07 54 100c0 49.93-69 79.07-107 99s-53 28.4-53 72c0 53.93 73 99.07 82 132s-4 51-4 51" fill-rule="evenodd" fill="none" stroke="#d695b3" stroke-width="1" stroke-dasharray="4 2"/><path id="Фигура_3" data-name="Фигура 3" class="cls-2" d="M260.91 1707.22l4.143 9.84 4.693-9.59s-2.146 2.89-4.493 2.53-4.343-2.78-4.343-2.78z" transform="translate(-105.5 -1604.5)"/><path id="Фигура_3_копия" data-name="Фигура 3 копия" class="cls-2" d="M124.136 1818.72l-6.42 8.54 10.652-.78s-3.574-.4-4.444-2.61.212-5.15.212-5.15z" transform="translate(-105.5 -1604.5)"/><path id="Фигура_3_копия_2" data-name="Фигура 3 копия 2" class="cls-2" d="M184.145 2045.76l3.423 10.12 5.371-9.24s-2.347 2.73-4.663 2.2-4.131-3.08-4.131-3.08z" transform="translate(-105.5 -1604.5)"/></svg>